<?xml version="1.0" encoding="UTF-8"?>
<svg width="90" height="90" viewBox="0 0 90 90" fill="none" xmlns="http://www.w3.org/2000/svg">
  <g clip-path="url(#clip0_48_82)">
    <path fill-rule="evenodd" clip-rule="evenodd"
      d="M25.3125 5.625C20.6868 5.625 16.875 9.43678 16.875 14.0625V22.5H11.25C10.5041 22.5 9.78875 22.7963 9.2613 23.3238C8.73386 23.8512 8.4375 24.5666 8.4375 25.3125C8.4375 26.0584 8.73386 26.7738 9.2613 27.3012C9.78875 27.8287 10.5041 28.125 11.25 28.125H16.875V42.1875H11.25C10.5041 42.1875 9.78875 42.4838 9.2613 43.0113C8.73386 43.5387 8.4375 44.2541 8.4375 45C8.4375 45.7459 8.73386 46.4613 9.2613 46.9887C9.78875 47.5162 10.5041 47.8125 11.25 47.8125H16.875V61.875H11.25C10.5041 61.875 9.78875 62.1713 9.2613 62.6988C8.73386 63.2262 8.4375 63.9416 8.4375 64.6875C8.4375 65.4334 8.73386 66.1488 9.2613 66.6762C9.78875 67.2037 10.5041 67.5 11.25 67.5H16.875V75.9375C16.875 80.5632 20.6868 84.375 25.3125 84.375H73.125C77.7507 84.375 81.5625 80.5632 81.5625 75.9375V14.0625C81.5625 9.43678 77.7507 5.625 73.125 5.625H25.3125Z"
      fill="#0375f6" />
  </g>
  <ellipse cx="72" cy="73" rx="13" ry="12" fill="#FF0000" />
  <path
    d="M72 84.75C65.5107 84.75 60.25 79.4877 60.25 73C60.25 66.5123 65.5107 61.25 72 61.25C78.4893 61.25 83.75 66.5123 83.75 73C83.75 79.4877 78.4893 84.75 72 84.75ZM72 58.5C63.9915 58.5 57.5 64.9888 57.5 73C57.5 81.0112 63.9915 87.5 72 87.5C80.0085 87.5 86.5 81.0112 86.5 73C86.5 64.9888 80.0085 58.5 72 58.5ZM77.25 71.625H73.375V67.75C73.375 66.9936 72.761 66.375 72 66.375C71.239 66.375 70.625 66.9936 70.625 67.75V71.625H66.75C65.989 71.625 65.375 72.2436 65.375 73C65.375 73.7564 65.989 74.375 66.75 74.375H70.625V78.25C70.625 79.0064 71.239 79.625 72 79.625C72.761 79.625 73.375 79.0064 73.375 78.25V74.375H77.25C78.011 74.375 78.625 73.7564 78.625 73C78.625 72.2436 78.011 71.625 77.25 71.625Z"
    fill="#0375f6" stroke="#0375f6" />
  <defs>
    <clipPath id="clip0_48_82">
      <rect width="90" height="90" fill="white"/>
    </clipPath>
  </defs>
</svg>
