<svg width="411" height="506" viewBox="0 0 411 506" fill="none" xmlns="http://www.w3.org/2000/svg">
<path fill-rule="evenodd" clip-rule="evenodd" d="M188.435 35.3804C160.972 37.7795 132.98 49.1126 113.505 65.7162C93.2052 83.0235 81.3183 99.1251 70.529 123.93C68.7133 128.104 68.3271 129.959 69.2727 129.959C69.5625 129.959 75.5163 132.6 82.5029 135.827C89.4894 139.055 96.2073 142.045 97.4314 142.474C101.213 143.796 115.782 149.267 125.87 153.153C128.59 154.201 135.935 156.783 142.191 158.891C148.448 160.999 154.544 163.14 155.739 163.649C156.933 164.158 157.96 164.513 158.021 164.438C158.081 164.363 158.746 162.412 159.498 160.102C162.202 151.798 168.798 140.382 175.235 132.868C179.488 127.902 183.892 124.229 189.646 120.846C198.304 115.754 204.265 114.03 215.582 113.343C223.485 112.864 224.144 113.07 225.681 116.505C228.506 122.815 228.678 131.001 226.144 138.459C223.653 145.787 219.686 151.02 207.397 163.189C183.233 187.116 173.717 199.585 166.155 217.23C159.548 232.647 155.967 249.364 154.09 273.554C153.001 287.582 152.862 286.414 155.669 286.789C156.961 286.962 160.355 287.784 163.211 288.618C166.067 289.45 170.601 290.678 173.285 291.346C175.969 292.013 178.602 292.793 179.135 293.078C180.483 293.799 184.388 294.845 189.919 295.969C194.374 296.874 194.974 296.885 201.542 296.175C205.35 295.763 214.03 295.21 220.83 294.946C227.631 294.682 234.586 294.344 236.286 294.196L239.377 293.926V292.097C239.377 288.569 240.91 278.393 242.325 272.519C243.777 266.497 246.124 260.394 248.881 255.473C253.21 247.745 261.58 238.757 272.267 230.359C275.803 227.58 281.032 223.478 283.886 221.241C306.179 203.774 320.363 181.945 324.737 158.373C325.805 152.616 326.248 135.601 325.479 129.83C324.661 123.691 321.816 112.603 319.742 107.476C315.818 97.7696 309.613 88.1977 302.082 80.2306C297.502 75.3861 286.604 67.2678 278.528 62.6852C275.084 60.7313 268.706 56.9744 264.354 54.3362C255.202 48.7889 251.194 46.7136 244.468 44.0378C236.09 40.7048 227.375 38.456 214.401 36.2788C210.115 35.5598 193.116 34.9718 188.435 35.3804ZM185.962 45.0661C166.997 46.8356 146.668 54.1795 130.074 65.2557C116.883 74.0603 104.638 85.6647 95.5055 98.0162C89.4646 106.186 81.347 121.766 82.6878 122.616C83.3526 123.037 90.5567 125.524 91.6368 125.706C91.9677 125.761 92.6834 126.045 93.2274 126.335C93.7715 126.626 96.331 127.549 98.9152 128.385C101.499 129.222 104.727 130.342 106.087 130.875C107.447 131.408 109.339 132.112 110.291 132.44C114.19 133.781 120.14 136.046 123.35 137.412C125.229 138.211 126.815 138.807 126.876 138.736C126.936 138.665 128.685 135.309 130.76 131.277C134.353 124.3 136.233 121.17 138.823 117.853C140.196 116.094 140.222 116.059 142.439 112.965C144.186 110.525 153.746 100.805 154.398 100.805C154.592 100.805 156.926 99.3514 159.585 97.575C162.245 95.7985 164.983 94.2123 165.671 94.0503C166.358 93.8882 168.033 93.2611 169.393 92.6568C171.878 91.5524 178.43 89.4893 180.274 89.2299C180.818 89.1533 182.488 88.9112 183.984 88.6923C191.706 87.5607 203.059 88.8109 209.949 91.5509C216.552 94.1768 222.621 98.0686 226.636 102.252C230.418 106.192 230.994 107.01 233.624 112.17C236.346 117.512 237.103 120.984 237.067 127.983C237.029 135.262 235.829 140.047 232.255 147.156C227.613 156.391 220.34 164.847 201.982 182.353C194.473 189.513 191.12 193.319 185.829 200.688C174.819 216.022 168.46 234.003 164.969 259.671C164.042 266.488 163.166 276.741 163.469 277.231C163.595 277.435 165.425 277.531 167.535 277.445C176.659 277.073 185.215 276.687 191.897 276.345C195.841 276.143 200.556 275.978 202.374 275.978H205.68L206.723 270.295C208.393 261.208 210.518 253.905 213.093 248.41C220.329 232.967 231.432 219.763 248.819 205.924C251.427 203.848 253.847 201.806 254.196 201.385C254.545 200.965 254.974 200.622 255.151 200.622C256.673 200.622 272.534 184.509 276.589 178.842C280.108 173.925 286.114 162.399 287.793 157.343C288.818 154.254 290.868 145.386 291.794 140.035C292.561 135.601 292.026 121.926 290.811 114.888C287.66 96.6484 282.456 86.0625 269.962 72.48C256.834 58.2073 235.564 48.5483 210.444 45.452C204.838 44.7612 191.488 44.5507 185.962 45.0661ZM180.598 308.371C173.547 309.31 165.512 313.077 158.629 318.67C148.654 326.776 143.095 338.85 143.248 352.076C143.394 364.641 147.922 375.259 156.864 384.002C163.888 390.869 172.405 393.893 186.704 394.594C191.265 394.818 195.241 395.33 198.354 396.094C203.949 397.466 213.402 398.446 216.589 397.985C222.174 397.176 229.791 393.416 234.208 389.287C240.24 383.649 244.52 376.274 247.085 367.094C248.983 360.302 249.326 349.777 247.841 343.909C245.524 334.757 241.319 328.359 233.497 322.087C226.769 316.693 218.99 313.475 208.737 311.844C205.077 311.262 199.736 310.258 196.867 309.613C190.717 308.231 184.954 307.79 180.598 308.371ZM178.692 318.477C174.22 319.449 167.087 323.31 163.4 326.755C156.277 333.413 153.04 341.845 153.11 353.558C153.148 359.893 153.939 363.087 156.868 368.727C162.104 378.811 170.806 384.036 182.5 384.116C190.665 384.172 196.849 381.583 202.835 375.604C208.811 369.633 211.985 362.241 212.509 353.064C213.194 341.082 209.152 330.32 201.607 324.044C194.903 318.467 187.275 316.614 178.692 318.477ZM171.333 329.799C167.554 331.443 163.706 336.443 163.706 339.71C163.706 342.066 165.615 343.922 168.039 343.922C169.385 343.922 170.115 343.529 171.429 342.096C172.35 341.092 173.103 340.089 173.103 339.866C173.103 339.645 174.338 338.674 175.847 337.709C179.717 335.236 180.413 333.184 178.252 330.619C177.192 329.36 176.617 329.102 174.914 329.117C173.781 329.128 172.171 329.435 171.333 329.799ZM164.695 441.297C125.601 443.408 102.707 445.335 93.722 447.27C87.055 448.706 87.4942 451.365 94.7112 453.262C100.571 454.802 116.562 456.058 143.18 457.068C192.6 458.943 197.825 459.072 213.164 458.791C239.953 458.301 284.242 455.939 296.358 454.355C310.715 452.478 314.27 450.966 310.78 448.224C309.258 447.027 307.227 446.427 302.374 445.741C298.902 445.249 265.66 442.814 247.785 441.74C236.115 441.04 175.453 440.717 164.695 441.297ZM330.01 449.417C328.17 450.216 327.846 451.807 329.359 452.616C329.885 452.897 331.854 453.127 333.734 453.127C336.502 453.127 337.319 452.943 338.03 452.157C339.234 450.829 338.704 449.829 336.467 449.208C333.949 448.509 331.951 448.574 330.01 449.417ZM74.0445 450.469C73.3451 451.167 73.7116 452.573 74.6726 452.878C75.9135 453.271 78.3899 452.116 78.3899 451.144C78.3899 450.364 74.7206 449.793 74.0445 450.469Z" fill="#0078FF"/>
</svg>
